<svg width="400" height="240" viewBox="0 0 400 240" xmlns="http://www.w3.org/2000/svg">
  <defs>
    <linearGradient id="g1" x1="0" y1="0" x2="1" y2="0">
      <stop offset="0%" stop-color="#4ecdc4"/>
      <stop offset="100%" stop-color="#45b7d1"/>
    </linearGradient>
    <linearGradient id="bg" x1="0" y1="0" x2="0" y2="1">
      <stop offset="0%" stop-color="#1a1a1a"/>
      <stop offset="100%" stop-color="#0f0f0f"/>
    </linearGradient>
  </defs>
  <rect width="100%" height="100%" rx="16" fill="url(#bg)"/>
  <g opacity="0.25">
    <path d="M0,200 C80,180 120,160 180,170 C240,180 300,210 360,190 L400,185 L400,240 L0,240 Z" fill="#45b7d1"/>
  </g>
  <g fill="none" stroke="url(#g1)" stroke-width="4">
    <path d="M20,180 C60,160 120,150 180,155 C240,160 300,175 360,170"/>
    <path d="M20,200 C80,185 140,175 200,178 C260,180 320,190 380,188" opacity="0.5"/>
  </g>
  <g fill="#4ecdc4" opacity="0.9">
    <circle cx="50" cy="190" r="3"/>
    <circle cx="130" cy="170" r="3"/>
    <circle cx="210" cy="178" r="3"/>
    <circle cx="290" cy="182" r="3"/>
    <circle cx="360" cy="176" r="3"/>
  </g>
</svg>

