<svg width="400" height="240" viewBox="0 0 400 240" xmlns="http://www.w3.org/2000/svg">
  <defs>
    <linearGradient id="g1" x1="0" y1="0" x2="1" y2="0">
      <stop offset="0%" stop-color="#4ecdc4"/>
      <stop offset="100%" stop-color="#45b7d1"/>
    </linearGradient>
    <linearGradient id="bg" x1="0" y1="0" x2="0" y2="1">
      <stop offset="0%" stop-color="#141414"/>
      <stop offset="100%" stop-color="#0f0f0f"/>
    </linearGradient>
  </defs>
  <rect width="100%" height="100%" rx="16" fill="url(#bg)"/>
  <g opacity="0.22">
    <path d="M0,200 C80,160 140,140 200,150 C260,160 320,190 400,175 L400,240 L0,240 Z" fill="#4ecdc4"/>
  </g>
  <g fill="none" stroke="url(#g1)" stroke-width="4">
    <path d="M20,180 C70,150 130,130 190,140 C250,150 310,175 380,165"/>
    <path d="M20,160 C80,130 150,110 220,120 C290,130 330,150 380,150" opacity="0.55"/>
  </g>
  <g fill="#45b7d1" opacity="0.9">
    <circle cx="50" cy="175" r="3"/>
    <circle cx="120" cy="145" r="3"/>
    <circle cx="200" cy="148" r="3"/>
    <circle cx="280" cy="165" r="3"/>
    <circle cx="350" cy="160" r="3"/>
  </g>
</svg>

