<svg width="400" height="240" viewBox="0 0 400 240" xmlns="http://www.w3.org/2000/svg">
  <defs>
    <linearGradient id="g1" x1="0" y1="0" x2="1" y2="0">
      <stop offset="0%" stop-color="#45b7d1"/>
      <stop offset="100%" stop-color="#4ecdc4"/>
    </linearGradient>
    <linearGradient id="bg" x1="0" y1="0" x2="0" y2="1">
      <stop offset="0%" stop-color="#101010"/>
      <stop offset="100%" stop-color="#1a1a1a"/>
    </linearGradient>
  </defs>
  <rect width="100%" height="100%" rx="16" fill="url(#bg)"/>
  <g opacity="0.2">
    <path d="M0,185 C80,155 140,120 210,130 C280,140 340,180 400,165 L400,240 L0,240 Z" fill="#45b7d1"/>
  </g>
  <g fill="none" stroke="url(#g1)" stroke-width="4">
    <path d="M20,170 C90,135 160,115 230,125 C300,135 340,160 380,155"/>
    <path d="M20,200 C110,165 180,145 250,150 C310,155 340,170 380,170" opacity="0.55"/>
  </g>
  <g fill="#4ecdc4" opacity="0.9">
    <circle cx="60" cy="180" r="3"/>
    <circle cx="140" cy="140" r="3"/>
    <circle cx="220" cy="130" r="3"/>
    <circle cx="300" cy="158" r="3"/>
    <circle cx="360" cy="156" r="3"/>
  </g>
</svg>

