<svg width="400" height="240" viewBox="0 0 400 240" xmlns="http://www.w3.org/2000/svg">
  <defs>
    <linearGradient id="g1" x1="0" y1="0" x2="1" y2="0">
      <stop offset="0%" stop-color="#4ecdc4"/>
      <stop offset="100%" stop-color="#45b7d1"/>
    </linearGradient>
    <linearGradient id="bg" x1="0" y1="0" x2="0" y2="1">
      <stop offset="0%" stop-color="#151515"/>
      <stop offset="100%" stop-color="#0e0e0e"/>
    </linearGradient>
  </defs>
  <rect width="100%" height="100%" rx="16" fill="url(#bg)"/>
  <g opacity="0.22">
    <path d="M0,175 C70,150 130,115 200,120 C270,125 330,170 400,160 L400,240 L0,240 Z" fill="#4ecdc4"/>
  </g>
  <g fill="none" stroke="url(#g1)" stroke-width="4">
    <path d="M20,160 C80,125 150,105 220,115 C290,125 330,150 380,145"/>
    <path d="M20,190 C100,155 170,135 240,140 C300,145 340,160 380,160" opacity="0.55"/>
  </g>
  <g fill="#45b7d1" opacity="0.9">
    <circle cx="50" cy="170" r="3"/>
    <circle cx="130" cy="130" r="3"/>
    <circle cx="210" cy="120" r="3"/>
    <circle cx="300" cy="150" r="3"/>
    <circle cx="360" cy="148" r="3"/>
  </g>
</svg>

