<svg width="400" height="240" viewBox="0 0 400 240" xmlns="http://www.w3.org/2000/svg">
  <defs>
    <linearGradient id="g1" x1="0" y1="0" x2="1" y2="0">
      <stop offset="0%" stop-color="#45b7d1"/>
      <stop offset="100%" stop-color="#4ecdc4"/>
    </linearGradient>
    <linearGradient id="bg" x1="0" y1="0" x2="0" y2="1">
      <stop offset="0%" stop-color="#111"/>
      <stop offset="100%" stop-color="#1a1a1a"/>
    </linearGradient>
  </defs>
  <rect width="100%" height="100%" rx="16" fill="url(#bg)"/>
  <g opacity="0.22">
    <path d="M0,180 C70,150 140,110 210,120 C280,130 340,190 400,170 L400,240 L0,240 Z" fill="#45b7d1"/>
  </g>
  <g fill="none" stroke="url(#g1)" stroke-width="4">
    <path d="M20,170 C90,130 160,100 230,110 C300,120 340,160 380,150"/>
    <path d="M20,200 C100,160 170,140 240,145 C300,150 340,170 380,168" opacity="0.55"/>
  </g>
  <g fill="#4ecdc4" opacity="0.9">
    <circle cx="60" cy="185" r="3"/>
    <circle cx="140" cy="135" r="3"/>
    <circle cx="215" cy="115" r="3"/>
    <circle cx="300" cy="155" r="3"/>
    <circle cx="360" cy="150" r="3"/>
  </g>
</svg>

